<svg xmlns="http://www.w3.org/2000/svg" viewBox="0 0 940 250" role="img" aria-label="Milepost — by 8 West IT (horizontal logo)">
<defs>
  <linearGradient id="body" x1="0" y1="0" x2="0" y2="1"><stop offset="0" stop-color="#1F8FD6"/><stop offset="1" stop-color="#0A1A3C"/></linearGradient>
  <linearGradient id="post" x1="0" y1="0" x2="1" y2="0"><stop offset="0" stop-color="#13315F"/><stop offset="1" stop-color="#0A1A3C"/></linearGradient>
  <clipPath id="shclip"><path d="M50 3 C44 3 40 6 34 7 C26 8.5 16 8 8 7.5 C9 14 10 20 10 28 C10 40 12 52 22 66 C30 77 40 86 50 101 C60 86 70 77 78 66 C88 52 90 40 90 28 C90 20 91 14 92 7.5 C84 8 74 8.5 66 7 C60 6 56 3 50 3 Z" transform="translate(40,10) scale(1.4)"/></clipPath>
</defs>
  <g transform="translate(8,8) scale(0.9)">
    <rect x="101" y="146" width="18" height="74" rx="6" fill="url(#post)"/>
    <rect x="70" y="214" width="80" height="14" rx="7" fill="#0A1A3C"/>
    <rect x="74" y="216" width="72" height="4" rx="2" fill="#4DB4EC" opacity="0.9"/>
    <g fill="none" stroke-linecap="round">
      <path d="M150 34 A 15 15 0 0 1 167 51" stroke="#4DB4EC" stroke-width="5"/>
      <path d="M145 25 A 26 26 0 0 1 176 56" stroke="#4DB4EC" stroke-width="5" opacity="0.6"/>
    </g>
    <path d="M50 3 C44 3 40 6 34 7 C26 8.5 16 8 8 7.5 C9 14 10 20 10 28 C10 40 12 52 22 66 C30 77 40 86 50 101 C60 86 70 77 78 66 C88 52 90 40 90 28 C90 20 91 14 92 7.5 C84 8 74 8.5 66 7 C60 6 56 3 50 3 Z" transform="translate(40,10) scale(1.4)" fill="#FFFFFF"/>
    <g clip-path="url(#shclip)">
      <rect x="40" y="10" width="140" height="200" fill="url(#body)"/>
      <rect x="40" y="10" width="140" height="44" fill="#C41E2A"/>
      <rect x="40" y="52" width="140" height="5" fill="#FFFFFF"/>
    </g>
    <path d="M50 3 C44 3 40 6 34 7 C26 8.5 16 8 8 7.5 C9 14 10 20 10 28 C10 40 12 52 22 66 C30 77 40 86 50 101 C60 86 70 77 78 66 C88 52 90 40 90 28 C90 20 91 14 92 7.5 C84 8 74 8.5 66 7 C60 6 56 3 50 3 Z" transform="translate(40,10) scale(1.4)" fill="none" stroke="#FFFFFF" stroke-width="6.5"/>
    <text x="110" y="41" text-anchor="middle" font-family="Bahnschrift, 'DIN Condensed', Oswald, 'Arial Narrow', Arial, sans-serif" font-weight="700" font-size="21" letter-spacing="2" fill="#FFFFFF">WEST</text>
    <text x="110" y="120" text-anchor="middle" font-family="Bahnschrift, 'DIN Condensed', Oswald, 'Arial Narrow', Arial, sans-serif" font-weight="800" font-size="76" fill="#FFFFFF">8</text>
  </g>
  <text x="236" y="122" font-family="Bahnschrift, 'DIN Condensed', Oswald, 'Arial Narrow', Arial, sans-serif" font-weight="800" font-size="118" fill="#0A1A3C">Milepost</text>
  <text x="240" y="168" font-family="Bahnschrift, 'DIN Condensed', Oswald, 'Arial Narrow', Arial, sans-serif" font-weight="600" font-size="34" letter-spacing="1" fill="#5A6B85">by 8 West IT</text>
  <text x="240" y="207" font-family="Bahnschrift, 'DIN Condensed', Oswald, 'Arial Narrow', Arial, sans-serif" font-weight="700" font-size="29" letter-spacing="1" fill="#C41E2A">Every endpoint, every mile.</text>
</svg>
